<?xml version="1.0" encoding="UTF-8" standalone="no"?>
<svg
   xmlns:dc="http://purl.org/dc/elements/1.1/"
   xmlns:cc="http://creativecommons.org/ns#"
   xmlns:rdf="http://www.w3.org/1999/02/22-rdf-syntax-ns#"
   xmlns:svg="http://www.w3.org/2000/svg"
   xmlns="http://www.w3.org/2000/svg"
   xmlns:sodipodi="http://sodipodi.sourceforge.net/DTD/sodipodi-0.dtd"
   xmlns:inkscape="http://www.inkscape.org/namespaces/inkscape"
   inkscape:version="1.0 (4035a4f, 2020-05-01)"
   sodipodi:docname="brain-solid-pink-blue.svg"
   id="svg74"
   version="1.1"
   viewBox="0 0 576 512"
   role="img"
   class="svg-inline--fa fa-brain fa-w-18"
   data-icon="brain"
   data-prefix="fas"
   focusable="false"
   aria-hidden="true">
  <metadata
     id="metadata80">
    <rdf:RDF>
      <cc:Work
         rdf:about="">
        <dc:format>image/svg+xml</dc:format>
        <dc:type
           rdf:resource="http://purl.org/dc/dcmitype/StillImage" />
        <dc:title></dc:title>
      </cc:Work>
    </rdf:RDF>
  </metadata>
  <defs
     id="defs78" />
  <sodipodi:namedview
     inkscape:current-layer="svg74"
     inkscape:window-maximized="0"
     inkscape:window-y="23"
     inkscape:window-x="0"
     inkscape:cy="265.12631"
     inkscape:cx="108.20627"
     inkscape:zoom="1.0718047"
     showgrid="false"
     id="namedview76"
     inkscape:window-height="855"
     inkscape:window-width="1440"
     inkscape:pageshadow="2"
     inkscape:pageopacity="0"
     guidetolerance="10"
     gridtolerance="10"
     objecttolerance="10"
     borderopacity="1"
     bordercolor="#666666"
     pagecolor="#ffffff" />
  <path
     style="stroke-width:1"
     id="path72"
     d="m 208,0 c -29.9,0 -54.7,20.5 -61.8,48.2 -0.8,0 -1.4,-0.2 -2.2,-0.2 -35.3,0 -63.999999,28.7 -63.999999,64 0,4.8 0.600002,9.5 1.7,14 C 52.5,138 32,166.6 32,200 c 0,12.6 3.2,24.3 8.3,34.9 C 16.3,248.7 0,274.3 0,304 c 0,33.3 20.4,61.9 49.4,73.9 -0.9,4.6 -1.4,9.3 -1.4,14.1 0,39.8 32.199999,72 72,72 4.1,0 8.1,-0.5 12,-1.2 9.6,28.5 36.2,49.2 68,49.2 39.8,0 72,-32.2 72,-72 V 64 C 272,28.7 243.3,0 208,0 Z m 368,304 c 0,-29.7 -16.3,-55.3 -40.3,-69.1 5.2,-10.6 8.3,-22.3 8.3,-34.9 0,-33.4 -20.5,-62 -49.7,-74 1,-4.5 1.7,-9.2 1.7,-14 0,-35.3 -28.7,-64 -64,-64 -0.8,0 -1.5,0.2 -2.2,0.2 C 422.7,20.5 397.9,0 368,0 332.7,0 304,28.6 304,64 v 376 c 0,39.8 32.2,72 72,72 31.8,0 58.4,-20.7 68,-49.2 3.9,0.7 7.9,1.2 12,1.2 39.8,0 72,-32.2 72,-72 0,-4.8 -0.5,-9.5 -1.4,-14.1 29,-12 49.4,-40.6 49.4,-73.9 z"
     fill="currentColor" />
  <path
     id="path82"
     d="m 186.11225,510.0487 c -21.98869,-4.40825 -40.58042,-19.21218 -50.49828,-40.20997 l -3.56439,-7.54642 -5.85712,0.81187 c -7.47608,1.03626 -19.97358,-0.42603 -28.608249,-3.34735 -28.764573,-9.73174 -48.441501,-36.49321 -48.779492,-66.34222 -0.0523,-4.61837 0.195546,-10.10671 0.550759,-12.19629 0.641218,-3.77203 0.617218,-3.81213 -3.35156,-5.59804 C 35.181011,370.75008 23.083444,360.65891 15.70965,350.35035 10.571881,343.16775 4.9053589,331.05309 2.685791,322.50617 0.12866194,312.65941 0.3053181,294.04636 3.0469793,284.45026 8.4760227,265.44804 18.886422,250.60558 34.732059,239.27577 c 3.207207,-2.29319 5.831286,-4.33809 5.831286,-4.54423 0,-0.20613 -1.030735,-3.00328 -2.290522,-6.21589 -6.088938,-15.52751 -7.311193,-32.41676 -3.427379,-47.35986 5.694609,-21.91021 20.77332,-41.13137 40.19261,-51.23439 l 7.315611,-3.80599 -0.813277,-3.50226 c -1.422357,-6.12516 -0.964627,-18.18063 0.97881,-25.779405 5.817874,-22.747662 23.580522,-40.510308 46.328182,-46.328181 3.94958,-1.010131 9.56655,-1.836603 12.48215,-1.836603 h 5.30111 l 1.17161,-3.965274 c 4.14008,-14.012001 18.43486,-30.783615 31.77896,-37.2852649 10.02378,-4.8838869 17.47596,-6.61664037 28.45668,-6.61664037 15.0258,0 26.94592,4.10322067 39.03737,13.43769227 10.8688,8.3906 20.37557,23.671599 23.161,37.228505 1.01611,4.945473 1.24603,42.132854 1.24603,201.529261 0,184.35517 -0.0947,195.86782 -1.66562,202.55714 -2.96357,12.61932 -11.2325,27.19287 -20.40782,35.96777 -16.60773,15.88291 -40.94757,23.00704 -63.2966,18.52655 z"
     style="fill:none;stroke:none;stroke-width:0.933006" />
  <path
     id="path84"
     d="m 186.11225,510.0487 c -21.98869,-4.40825 -40.58042,-19.21218 -50.49828,-40.20997 l -3.56439,-7.54642 -5.85712,0.81187 c -7.47608,1.03626 -19.97358,-0.42603 -28.608249,-3.34735 -28.764573,-9.73174 -48.441501,-36.49321 -48.779492,-66.34222 -0.0523,-4.61837 0.195546,-10.10671 0.550759,-12.19629 0.641218,-3.77203 0.617218,-3.81213 -3.35156,-5.59804 C 35.181011,370.75008 23.083444,360.65891 15.70965,350.35035 10.571881,343.16775 4.9053589,331.05309 2.685791,322.50617 0.12866194,312.65941 0.3053181,294.04636 3.0469793,284.45026 8.4760227,265.44804 18.886422,250.60558 34.732059,239.27577 c 3.207207,-2.29319 5.831286,-4.33809 5.831286,-4.54423 0,-0.20613 -1.030735,-3.00328 -2.290522,-6.21589 -6.088938,-15.52751 -7.311193,-32.41676 -3.427379,-47.35986 5.694609,-21.91021 20.77332,-41.13137 40.19261,-51.23439 l 7.315611,-3.80599 -0.813277,-3.50226 c -1.422357,-6.12516 -0.964627,-18.18063 0.97881,-25.779405 5.817874,-22.747662 23.580522,-40.510308 46.328182,-46.328181 3.94958,-1.010131 9.56655,-1.836603 12.48215,-1.836603 h 5.30111 l 1.17161,-3.965274 c 4.14008,-14.012001 18.43486,-30.783615 31.77896,-37.2852649 10.02378,-4.8838869 17.47596,-6.61664037 28.45668,-6.61664037 15.0258,0 26.94592,4.10322067 39.03737,13.43769227 10.8688,8.3906 20.37557,23.671599 23.161,37.228505 1.01611,4.945473 1.24603,42.132854 1.24603,201.529261 0,184.35517 -0.0947,195.86782 -1.66562,202.55714 -2.96357,12.61932 -11.2325,27.19287 -20.40782,35.96777 -16.60773,15.88291 -40.94757,23.00704 -63.2966,18.52655 z"
     style="fill:none;stroke-width:0.933006" />
  <path
     id="path86"
     d="m 186.11225,510.0487 c -21.98869,-4.40825 -40.58042,-19.21218 -50.49828,-40.20997 l -3.56439,-7.54642 -5.85712,0.81187 c -7.47608,1.03626 -19.97358,-0.42603 -28.608249,-3.34735 -28.764573,-9.73174 -48.441501,-36.49321 -48.779492,-66.34222 -0.0523,-4.61837 0.195546,-10.10671 0.550759,-12.19629 0.641218,-3.77203 0.617218,-3.81213 -3.35156,-5.59804 C 35.181011,370.75008 23.083444,360.65891 15.70965,350.35035 10.571881,343.16775 4.9053589,331.05309 2.685791,322.50617 0.12866194,312.65941 0.3053181,294.04636 3.0469793,284.45026 8.4760227,265.44804 18.886422,250.60558 34.732059,239.27577 c 3.207207,-2.29319 5.831286,-4.33809 5.831286,-4.54423 0,-0.20613 -1.030735,-3.00328 -2.290522,-6.21589 -6.088938,-15.52751 -7.311193,-32.41676 -3.427379,-47.35986 5.694609,-21.91021 20.77332,-41.13137 40.19261,-51.23439 l 7.315611,-3.80599 -0.813277,-3.50226 c -1.422357,-6.12516 -0.964627,-18.18063 0.97881,-25.779405 5.817874,-22.747662 23.580522,-40.510308 46.328182,-46.328181 3.94958,-1.010131 9.56655,-1.836603 12.48215,-1.836603 h 5.30111 l 1.17161,-3.965274 c 4.14008,-14.012001 18.43486,-30.783615 31.77896,-37.2852649 10.02378,-4.8838869 17.47596,-6.61664037 28.45668,-6.61664037 15.0258,0 26.94592,4.10322067 39.03737,13.43769227 10.8688,8.3906 20.37557,23.671599 23.161,37.228505 1.01611,4.945473 1.24603,42.132854 1.24603,201.529261 0,184.35517 -0.0947,195.86782 -1.66562,202.55714 -2.96357,12.61932 -11.2325,27.19287 -20.40782,35.96777 -16.60773,15.88291 -40.94757,23.00704 -63.2966,18.52655 z"
     style="fill:#eebbc3;stroke-width:0.933006;fill-opacity:1" />
  <path
     id="path911"
     d="m 361.8498,510.02983 c -13.68993,-2.72687 -24.97896,-8.89454 -35.84311,-19.58261 -12.11695,-11.92058 -18.67477,-25.23292 -20.91222,-42.45176 -0.73162,-5.63035 -0.9453,-63.94737 -0.73673,-201.06276 0.27765,-182.524595 0.38569,-193.439674 1.96709,-198.730241 6.89313,-23.060901 23.8107,-39.7793304 46.32896,-45.7836228 8.07707,-2.15367697 22.72712,-2.15131498 30.7892,0.00496 19.90922,5.3249124 38.23678,22.4112228 44.35056,41.3468808 l 1.58151,4.89828 h 5.34139 c 11.64263,0 26.56788,5.763928 37.54019,14.497509 16.82431,13.391566 26.27449,38.414574 22.29035,59.022304 l -0.77544,4.01088 5.71435,2.86375 c 29.35415,14.71087 46.99825,46.8799 43.38833,79.10635 -0.7254,6.47586 -3.61013,17.13458 -6.86013,25.34741 -0.43937,1.11029 0.9676,2.63012 5.29051,5.71488 12.72191,9.07818 23.95633,23.4665 29.17327,37.36328 13.94527,37.14711 -3.27735,80.83864 -38.68697,98.14377 l -5.13153,2.50785 v 14.61488 c 0,14.01791 -0.11946,14.94876 -2.92473,22.78914 -4.69516,13.12242 -11.51085,23.05213 -21.99809,32.0488 -15.15458,13.00063 -38.15318,19.41949 -56.33963,15.72429 -1.58359,-0.32176 -2.15772,0.26648 -3.00925,3.08321 -1.96679,6.50584 -9.64887,18.18635 -16.37839,24.90317 -17.00751,16.97539 -40.84238,24.26388 -64.15949,19.6194 z"
     style="fill:#b8c1ec;fill-opacity:1;stroke-width:0.933006" />
</svg>
