<?xml version="1.0" encoding="UTF-8" standalone="no"?>
<svg
   xmlns:dc="http://purl.org/dc/elements/1.1/"
   xmlns:cc="http://creativecommons.org/ns#"
   xmlns:rdf="http://www.w3.org/1999/02/22-rdf-syntax-ns#"
   xmlns:svg="http://www.w3.org/2000/svg"
   xmlns="http://www.w3.org/2000/svg"
   xmlns:sodipodi="http://sodipodi.sourceforge.net/DTD/sodipodi-0.dtd"
   xmlns:inkscape="http://www.inkscape.org/namespaces/inkscape"
   inkscape:version="1.0 (4035a4f, 2020-05-01)"
   sodipodi:docname="brain-solid-blue-pink.svg"
   id="svg74"
   version="1.1"
   viewBox="0 0 576 512"
   role="img"
   class="svg-inline--fa fa-brain fa-w-18"
   data-icon="brain"
   data-prefix="fas"
   focusable="false"
   aria-hidden="true">
  <metadata
     id="metadata80">
    <rdf:RDF>
      <cc:Work
         rdf:about="">
        <dc:format>image/svg+xml</dc:format>
        <dc:type
           rdf:resource="http://purl.org/dc/dcmitype/StillImage" />
        <dc:title></dc:title>
      </cc:Work>
    </rdf:RDF>
  </metadata>
  <defs
     id="defs78" />
  <sodipodi:namedview
     inkscape:current-layer="svg74"
     inkscape:window-maximized="0"
     inkscape:window-y="23"
     inkscape:window-x="0"
     inkscape:cy="265.12631"
     inkscape:cx="108.20627"
     inkscape:zoom="1.0718047"
     showgrid="false"
     id="namedview76"
     inkscape:window-height="855"
     inkscape:window-width="1440"
     inkscape:pageshadow="2"
     inkscape:pageopacity="0"
     guidetolerance="10"
     gridtolerance="10"
     objecttolerance="10"
     borderopacity="1"
     bordercolor="#666666"
     pagecolor="#ffffff" />
  <path
     style="stroke-width:1"
     id="path72"
     d="m 208,0 c -29.9,0 -54.7,20.5 -61.8,48.2 -0.8,0 -1.4,-0.2 -2.2,-0.2 -35.3,0 -63.999999,28.7 -63.999999,64 0,4.8 0.600002,9.5 1.7,14 C 52.5,138 32,166.6 32,200 c 0,12.6 3.2,24.3 8.3,34.9 C 16.3,248.7 0,274.3 0,304 c 0,33.3 20.4,61.9 49.4,73.9 -0.9,4.6 -1.4,9.3 -1.4,14.1 0,39.8 32.199999,72 72,72 4.1,0 8.1,-0.5 12,-1.2 9.6,28.5 36.2,49.2 68,49.2 39.8,0 72,-32.2 72,-72 V 64 C 272,28.7 243.3,0 208,0 Z m 368,304 c 0,-29.7 -16.3,-55.3 -40.3,-69.1 5.2,-10.6 8.3,-22.3 8.3,-34.9 0,-33.4 -20.5,-62 -49.7,-74 1,-4.5 1.7,-9.2 1.7,-14 0,-35.3 -28.7,-64 -64,-64 -0.8,0 -1.5,0.2 -2.2,0.2 C 422.7,20.5 397.9,0 368,0 332.7,0 304,28.6 304,64 v 376 c 0,39.8 32.2,72 72,72 31.8,0 58.4,-20.7 68,-49.2 3.9,0.7 7.9,1.2 12,1.2 39.8,0 72,-32.2 72,-72 0,-4.8 -0.5,-9.5 -1.4,-14.1 29,-12 49.4,-40.6 49.4,-73.9 z"
     fill="currentColor" />
  <path
     id="path82"
     d="m 186.11225,510.0487 c -21.98869,-4.40825 -40.58042,-19.21218 -50.49828,-40.20997 l -3.56439,-7.54642 -5.85712,0.81187 c -7.47608,1.03626 -19.97358,-0.42603 -28.608249,-3.34735 -28.764573,-9.73174 -48.441501,-36.49321 -48.779492,-66.34222 -0.0523,-4.61837 0.195546,-10.10671 0.550759,-12.19629 0.641218,-3.77203 0.617218,-3.81213 -3.35156,-5.59804 C 35.181011,370.75008 23.083444,360.65891 15.70965,350.35035 10.571881,343.16775 4.9053589,331.05309 2.685791,322.50617 0.12866194,312.65941 0.3053181,294.04636 3.0469793,284.45026 8.4760227,265.44804 18.886422,250.60558 34.732059,239.27577 c 3.207207,-2.29319 5.831286,-4.33809 5.831286,-4.54423 0,-0.20613 -1.030735,-3.00328 -2.290522,-6.21589 -6.088938,-15.52751 -7.311193,-32.41676 -3.427379,-47.35986 5.694609,-21.91021 20.77332,-41.13137 40.19261,-51.23439 l 7.315611,-3.80599 -0.813277,-3.50226 c -1.422357,-6.12516 -0.964627,-18.18063 0.97881,-25.779405 5.817874,-22.747662 23.580522,-40.510308 46.328182,-46.328181 3.94958,-1.010131 9.56655,-1.836603 12.48215,-1.836603 h 5.30111 l 1.17161,-3.965274 c 4.14008,-14.012001 18.43486,-30.783615 31.77896,-37.2852649 10.02378,-4.8838869 17.47596,-6.61664037 28.45668,-6.61664037 15.0258,0 26.94592,4.10322067 39.03737,13.43769227 10.8688,8.3906 20.37557,23.671599 23.161,37.228505 1.01611,4.945473 1.24603,42.132854 1.24603,201.529261 0,184.35517 -0.0947,195.86782 -1.66562,202.55714 -2.96357,12.61932 -11.2325,27.19287 -20.40782,35.96777 -16.60773,15.88291 -40.94757,23.00704 -63.2966,18.52655 z"
     style="fill:none;stroke:none;stroke-width:0.933006" />
  <path
     id="path84"
     d="m 186.11225,510.0487 c -21.98869,-4.40825 -40.58042,-19.21218 -50.49828,-40.20997 l -3.56439,-7.54642 -5.85712,0.81187 c -7.47608,1.03626 -19.97358,-0.42603 -28.608249,-3.34735 -28.764573,-9.73174 -48.441501,-36.49321 -48.779492,-66.34222 -0.0523,-4.61837 0.195546,-10.10671 0.550759,-12.19629 0.641218,-3.77203 0.617218,-3.81213 -3.35156,-5.59804 C 35.181011,370.75008 23.083444,360.65891 15.70965,350.35035 10.571881,343.16775 4.9053589,331.05309 2.685791,322.50617 0.12866194,312.65941 0.3053181,294.04636 3.0469793,284.45026 8.4760227,265.44804 18.886422,250.60558 34.732059,239.27577 c 3.207207,-2.29319 5.831286,-4.33809 5.831286,-4.54423 0,-0.20613 -1.030735,-3.00328 -2.290522,-6.21589 -6.088938,-15.52751 -7.311193,-32.41676 -3.427379,-47.35986 5.694609,-21.91021 20.77332,-41.13137 40.19261,-51.23439 l 7.315611,-3.80599 -0.813277,-3.50226 c -1.422357,-6.12516 -0.964627,-18.18063 0.97881,-25.779405 5.817874,-22.747662 23.580522,-40.510308 46.328182,-46.328181 3.94958,-1.010131 9.56655,-1.836603 12.48215,-1.836603 h 5.30111 l 1.17161,-3.965274 c 4.14008,-14.012001 18.43486,-30.783615 31.77896,-37.2852649 10.02378,-4.8838869 17.47596,-6.61664037 28.45668,-6.61664037 15.0258,0 26.94592,4.10322067 39.03737,13.43769227 10.8688,8.3906 20.37557,23.671599 23.161,37.228505 1.01611,4.945473 1.24603,42.132854 1.24603,201.529261 0,184.35517 -0.0947,195.86782 -1.66562,202.55714 -2.96357,12.61932 -11.2325,27.19287 -20.40782,35.96777 -16.60773,15.88291 -40.94757,23.00704 -63.2966,18.52655 z"
     style="fill:none;stroke-width:0.933006" />
  <path
     id="path86"
     d="m 186.11225,510.0487 c -21.98869,-4.40825 -40.58042,-19.21218 -50.49828,-40.20997 l -3.56439,-7.54642 -5.85712,0.81187 c -7.47608,1.03626 -19.97358,-0.42603 -28.608249,-3.34735 -28.764573,-9.73174 -48.441501,-36.49321 -48.779492,-66.34222 -0.0523,-4.61837 0.195546,-10.10671 0.550759,-12.19629 0.641218,-3.77203 0.617218,-3.81213 -3.35156,-5.59804 C 35.181011,370.75008 23.083444,360.65891 15.70965,350.35035 10.571881,343.16775 4.9053589,331.05309 2.685791,322.50617 0.12866194,312.65941 0.3053181,294.04636 3.0469793,284.45026 8.4760227,265.44804 18.886422,250.60558 34.732059,239.27577 c 3.207207,-2.29319 5.831286,-4.33809 5.831286,-4.54423 0,-0.20613 -1.030735,-3.00328 -2.290522,-6.21589 -6.088938,-15.52751 -7.311193,-32.41676 -3.427379,-47.35986 5.694609,-21.91021 20.77332,-41.13137 40.19261,-51.23439 l 7.315611,-3.80599 -0.813277,-3.50226 c -1.422357,-6.12516 -0.964627,-18.18063 0.97881,-25.779405 5.817874,-22.747662 23.580522,-40.510308 46.328182,-46.328181 3.94958,-1.010131 9.56655,-1.836603 12.48215,-1.836603 h 5.30111 l 1.17161,-3.965274 c 4.14008,-14.012001 18.43486,-30.783615 31.77896,-37.2852649 10.02378,-4.8838869 17.47596,-6.61664037 28.45668,-6.61664037 15.0258,0 26.94592,4.10322067 39.03737,13.43769227 10.8688,8.3906 20.37557,23.671599 23.161,37.228505 1.01611,4.945473 1.24603,42.132854 1.24603,201.529261 0,184.35517 -0.0947,195.86782 -1.66562,202.55714 -2.96357,12.61932 -11.2325,27.19287 -20.40782,35.96777 -16.60773,15.88291 -40.94757,23.00704 -63.2966,18.52655 z"
     style="fill:#eebbc3;stroke-width:0.933006;fill-opacity:1" />
  <path
     id="path911"
     d="m 361.8498,510.02983 c -13.68993,-2.72687 -24.97896,-8.89454 -35.84311,-19.58261 -12.11695,-11.92058 -18.67477,-25.23292 -20.91222,-42.45176 -0.73162,-5.63035 -0.9453,-63.94737 -0.73673,-201.06276 0.27765,-182.524595 0.38569,-193.439674 1.96709,-198.730241 6.89313,-23.060901 23.8107,-39.7793304 46.32896,-45.7836228 8.07707,-2.15367697 22.72712,-2.15131498 30.7892,0.00496 19.90922,5.3249124 38.23678,22.4112228 44.35056,41.3468808 l 1.58151,4.89828 h 5.34139 c 11.64263,0 26.56788,5.763928 37.54019,14.497509 16.82431,13.391566 26.27449,38.414574 22.29035,59.022304 l -0.77544,4.01088 5.71435,2.86375 c 29.35415,14.71087 46.99825,46.8799 43.38833,79.10635 -0.7254,6.47586 -3.61013,17.13458 -6.86013,25.34741 -0.43937,1.11029 0.9676,2.63012 5.29051,5.71488 12.72191,9.07818 23.95633,23.4665 29.17327,37.36328 13.94527,37.14711 -3.27735,80.83864 -38.68697,98.14377 l -5.13153,2.50785 v 14.61488 c 0,14.01791 -0.11946,14.94876 -2.92473,22.78914 -4.69516,13.12242 -11.51085,23.05213 -21.99809,32.0488 -15.15458,13.00063 -38.15318,19.41949 -56.33963,15.72429 -1.58359,-0.32176 -2.15772,0.26648 -3.00925,3.08321 -1.96679,6.50584 -9.64887,18.18635 -16.37839,24.90317 -17.00751,16.97539 -40.84238,24.26388 -64.15949,19.6194 z"
     style="fill:#b8c1ec;fill-opacity:1;stroke-width:0.933006" />
  <path
     id="path931"
     d="m 182.9512,508.65751 c -20.05052,-5.42145 -36.03188,-18.39495 -45.62553,-37.03832 l -4.65011,-9.03655 -12.0014,-0.11838 c -13.9901,-0.138 -20.47225,-1.58704 -31.67161,-7.07997 -17.556442,-8.61087 -30.512248,-23.83643 -36.853176,-43.30956 -1.788215,-5.49164 -2.156309,-8.81348 -2.312925,-20.87279 l -0.18626,-14.34174 -5.606424,-2.99546 C 20.766047,361.42765 4.1941897,337.53061 1.879274,313.06247 c -2.5997008,-27.47824 7.6575241,-52.70032 28.143595,-69.20388 3.634089,-2.92762 7.625308,-6.16504 8.869373,-7.19426 l 2.261938,-1.87132 -2.354103,-6.52613 c -7.805509,-21.63869 -7.203339,-42.01312 1.803559,-61.02337 7.847861,-16.56396 22.871996,-31.69328 38.420639,-38.68963 3.6601,-1.64691 3.856545,-1.92945 3.24369,-4.66503 -0.3588,-1.60157 -0.61924,-7.53032 -0.578756,-13.175 0.06375,-8.88837 0.449322,-11.340043 2.878589,-18.303476 6.562833,-18.8122 21.354632,-33.606113 40.023372,-40.029104 3.00746,-1.034717 9.29004,-2.350991 13.96128,-2.925053 l 8.49317,-1.043749 1.67293,-4.770034 c 2.62046,-7.471784 7.80556,-15.31233 15.34533,-23.204112 8.05847,-8.434713 14.46418,-12.6056824 24.85635,-16.1847913 6.45939,-2.2246466 8.95042,-2.5748422 18.65116,-2.6220338 9.16231,-0.044572 12.46717,0.3370413 18.19361,2.1008268 17.21712,5.3029939 30.25422,16.8123953 39.1523,34.5644013 6.04497,12.059918 5.71312,-0.431893 5.6884,214.130255 -0.0137,118.67903 -0.36916,197.11203 -0.90752,200.2335 -1.15068,6.67182 -2.97844,11.66578 -7.23246,19.7612 -8.9703,17.07051 -21.99673,28.28842 -40.18903,34.60938 -7.1457,2.4828 -9.70045,2.88108 -20.30334,3.16523 -9.92914,0.26608 -13.37932,-0.013 -19.02215,-1.53878 z"
     style="fill:#eebbc3;fill-opacity:1;stroke-width:0.933006" />
  <path
     id="path933"
     d="m 187.97827,509.95961 c -8.05137,-1.92635 -10.97563,-2.85701 -15.98911,-5.0886 -14.48117,-6.44581 -27.09702,-18.54788 -34.66349,-33.25182 l -4.65011,-9.03655 -12.0014,-0.11838 c -13.9901,-0.138 -20.47225,-1.58704 -31.67161,-7.07997 -17.562665,-8.61392 -30.546575,-23.87694 -36.842476,-43.30956 -1.757188,-5.42365 -2.157285,-8.95893 -2.359642,-20.84995 -0.134021,-7.8754 -0.377855,-14.43757 -0.541854,-14.58261 -0.163999,-0.14502 -2.397443,-1.32864 -4.96321,-2.63026 C 21.583929,362.49037 4.1910941,337.49789 1.879274,313.06247 -0.84521972,284.2652 9.7075904,259.80832 32.691108,241.65389 c 4.586307,-3.62266 8.33874,-6.74136 8.33874,-6.93042 0,-0.18906 -0.993323,-2.98276 -2.207383,-6.20823 -9.627954,-25.57911 -6.320302,-52.24216 9.174551,-73.95626 5.405536,-7.57517 16.48821,-17.83395 23.679873,-21.91949 12.433468,-7.06337 11.28712,-5.89447 10.22995,-10.4312 -0.516552,-2.21672 -0.73169,-8.0581 -0.478085,-12.98084 1.333091,-25.876672 18.417399,-48.332645 43.278446,-56.886101 2.94365,-1.01276 9.17401,-2.31107 13.84525,-2.885132 l 8.49317,-1.043749 1.67293,-4.770034 c 2.62046,-7.471784 7.80556,-15.31233 15.34533,-23.204112 8.04289,-8.418407 14.43725,-12.5876479 24.85635,-16.2068186 6.51371,-2.2625983 8.86885,-2.5931408 18.65116,-2.6176744 9.10056,-0.022824 12.50577,0.374501 18.19361,2.1228541 17.20629,5.2889376 30.2528,16.8051919 39.1523,34.5600419 6.04497,12.059918 5.71312,-0.431893 5.6884,214.130255 -0.0137,118.67903 -0.36916,197.11203 -0.90752,200.2335 -3.3515,19.43244 -17.69844,39.32425 -35.53613,49.27031 -10.24574,5.71289 -18.78666,7.88764 -32.1887,8.19611 -6.67099,0.15354 -12.96878,0.0783 -13.99508,-0.16729 z"
     style="fill:#eebbc3;fill-opacity:1;stroke-width:0.933006" />
  <path
     id="path935"
     d="m 358.55188,508.64857 c -20.97803,-5.49873 -40.21101,-22.38669 -48.18784,-42.31246 -5.6832,-14.19638 -5.39248,-1.73408 -5.08566,-218.0039 l 0.27995,-197.330734 1.96531,-5.152502 c 8.26756,-21.675285 23.44039,-36.4385071 43.73065,-42.5500917 6.8025,-2.0489671 25.7159,-2.30757156 32.1887,-0.4401189 11.71124,3.3787826 25.43966,12.5853456 33.23005,22.2847626 4.21879,5.252588 11.55423,19.188351 11.55423,21.950551 0,1.086698 1.6803,1.569896 7.23079,2.079319 27.94055,2.564381 49.84079,20.698736 57.14348,47.317292 2.06348,7.521412 2.67637,16.992502 1.61475,24.952732 l -0.68437,5.13153 7.42255,4.07841 c 14.89748,8.1856 26.51673,20.29052 33.678,35.08569 5.65994,11.69341 7.66392,20.40527 7.73137,33.61035 0.0582,11.39484 -0.67783,15.58475 -5.15123,29.32369 l -1.95313,5.99852 3.164,2.70607 c 16.28383,13.92708 21.48303,19.83761 27.83634,31.64485 6.12489,11.38272 7.98457,19.54643 7.93271,34.82353 -0.0509,14.97043 -1.26644,20.69404 -7.00368,32.97571 -7.29409,15.61439 -18.53691,27.88562 -32.97059,35.98652 l -8.02538,4.50424 -0.0125,14.11558 c -0.0116,13.06304 -0.20901,14.68011 -2.64801,21.68644 -4.28875,12.31994 -8.83834,19.51882 -18.2711,28.91067 -7.16037,7.12929 -9.94448,9.18621 -17.35679,12.82333 -12.69362,6.2286 -17.80646,7.4173 -32.49216,7.55426 l -12.46767,0.11627 -1.59085,4.16751 c -5.45877,14.3002 -20.73708,30.30708 -35.51869,37.21242 -14.20607,6.63648 -32.91489,8.51576 -47.28325,4.74956 z"
     style="fill:#eebbc3;fill-opacity:1;stroke-width:0.933006" />
  <path
     id="path937"
     d="m 182.83126,508.81065 c -19.82634,-5.54234 -36.03709,-18.79131 -45.50559,-37.19146 l -4.65011,-9.03655 -12.0014,-0.11838 c -13.9901,-0.138 -20.47225,-1.58704 -31.67161,-7.07997 -17.581048,-8.62293 -30.646067,-23.9944 -36.81109,-43.30956 -1.663814,-5.21277 -2.175232,-9.47848 -2.533688,-21.13338 l -0.449108,-14.60236 -3.846485,-1.72525 C 31.928529,368.58837 17.496605,354.19532 10.056174,339.40282 4.6166567,328.58838 2.8123073,322.75225 1.8755811,312.94286 -0.85895158,284.30685 9.7428906,259.78044 32.691108,241.65389 c 4.586307,-3.62266 8.33874,-6.7354 8.33874,-6.91718 0,-0.18178 -0.868802,-2.53468 -1.93067,-5.22866 -9.98879,-25.34176 -6.693383,-53.09993 8.897838,-74.94907 5.405536,-7.57517 16.48821,-17.83395 23.679873,-21.91949 12.433468,-7.06337 11.28712,-5.89447 10.22995,-10.4312 -0.516552,-2.21672 -0.73169,-8.0581 -0.478085,-12.98084 1.333091,-25.876672 18.417399,-48.332645 43.278446,-56.886101 2.94365,-1.01276 9.18519,-2.312446 13.87011,-2.888188 l 8.51804,-1.046804 1.73269,-5.09748 c 3.63032,-10.680223 15.99654,-25.900046 26.73589,-32.905403 2.92203,-1.906059 9.00989,-4.6773544 13.52859,-6.1584344 11.00262,-3.60629828 25.85703,-3.80830481 36.67248,-0.4987125 17.1824,5.2579133 30.24964,16.7892529 39.1523,34.5503979 6.06669,12.103256 5.73168,-0.360467 5.7383,213.488515 0.004,106.89666 -0.26274,196.34885 -0.59121,198.78266 -1.40115,10.38177 -7.0433,22.96741 -14.98708,33.43088 -8.13246,10.712 -19.35473,18.52324 -33.51083,23.32519 -10.02594,3.40094 -29.2483,4.1387 -38.73522,1.48668 z"
     style="fill:#b8c1ec;fill-opacity:1;stroke-width:0.933006" />
</svg>
