<?xml version="1.0" standalone="no"?>
<!DOCTYPE svg PUBLIC "-//W3C//DTD SVG 20010904//EN"
 "http://www.w3.org/TR/2001/REC-SVG-20010904/DTD/svg10.dtd">
<svg version="1.0" xmlns="http://www.w3.org/2000/svg"
 width="512.000000pt" height="512.000000pt" viewBox="0 0 512.000000 512.000000"
 preserveAspectRatio="xMidYMid meet">
<metadata>
Created by potrace 1.11, written by Peter Selinger 2001-2013
</metadata>
<g transform="translate(0.000000,512.000000) scale(0.100000,-0.100000)"
fill="#000000" stroke="none">
<path d="M1777 5108 c-78 -10 -191 -66 -271 -133 -71 -61 -145 -164 -170 -238
-27 -80 -41 -95 -104 -107 -132 -27 -183 -48 -272 -113 -98 -71 -181 -201
-214 -332 -10 -38 -20 -117 -22 -175 -6 -140 -13 -157 -82 -205 -119 -83 -195
-169 -256 -292 -73 -150 -91 -230 -90 -413 0 -105 4 -141 27 -221 15 -53 27
-99 27 -101 0 -3 -18 -25 -41 -49 -149 -162 -183 -204 -218 -269 -60 -113 -71
-166 -78 -365 -7 -216 15 -308 106 -447 82 -123 191 -240 262 -280 44 -25 46
-32 54 -183 12 -222 72 -377 197 -506 119 -123 243 -180 423 -194 44 -4 91
-12 105 -18 16 -8 42 -45 75 -107 37 -71 68 -114 125 -170 90 -90 157 -131
270 -164 280 -82 539 56 715 379 l45 82 0 2104 0 2104 -56 95 c-133 226 -342
345 -557 318z"/>
<path d="M3150 5096 c-105 -30 -221 -109 -284 -195 -21 -28 -60 -91 -87 -141
l-49 -91 0 -2079 0 -2079 33 -68 c82 -168 167 -271 291 -354 161 -108 413
-113 569 -11 127 82 269 245 298 340 7 23 19 48 27 54 8 7 53 13 105 14 51 1
102 5 115 8 12 3 30 8 40 10 129 33 242 113 338 237 92 120 140 267 149 458 6
131 18 158 87 201 119 75 258 267 309 429 32 103 34 282 4 451 -23 135 -91
251 -235 403 l-91 96 31 102 c57 192 58 311 4 478 -63 194 -175 350 -319 446
-67 44 -70 50 -80 217 -3 53 -7 103 -10 110 -2 7 -6 24 -9 38 -16 96 -108 246
-191 316 -27 21 -53 44 -59 50 -20 19 -104 65 -138 75 -18 5 -57 12 -86 14
-65 7 -88 20 -103 60 -46 117 -87 183 -159 255 -82 82 -160 130 -255 155 -70
18 -182 18 -245 1z"/>
</g>
</svg>
